{"title":"33 Czas honoru S03E07 XviD","uid":5908210,"size":366753839,"categoryP":"video","categoryS":"tv_shows","magnet":"?xt=urn:btih:158cf64c3381bc3aef0a6e2ab40deebe5aba0c93&amp;dn=33+Czas+honoru+S03E07+XviD&amp;tr=udp%3A%2F%2Ftracker.openbittorrent.com%3A80&amp;tr=udp%3A%2F%2Fopen.demonii.com%3A1337&amp;tr=udp%3A%2F%2Ftracker.coppersurfer.tk%3A6969&amp;tr=udp%3A%2F%2Fexodus.desync.com%3A6969","seeders":0,"leechers":0,"uploader":"kisielm","files":2,"time":1287962082,"description":"Format                           : AVI\nFormat/Info                      : Audio Video Interleave\nFile size                        : 350 MiB\nDuration                         : 44mn 10s\nOverall bit rate                 : 1 107 Kbps\n\nVideo\nFormat                           : MPEG-4 Visual\nFormat profile                   : Advanced Simple@L5\nFormat settings, BVOP            : Yes\nFormat settings, QPel            : No\nFormat settings, GMC             : No warppoints\nFormat settings, Matrix          : Default (H.263)\nCodec ID                         : XVID\nCodec ID/Hint                    : XviD\nBit rate                         : 985 Kbps\nWidth                            : 640 pixels\nHeight                           : 352 pixels\nDisplay aspect ratio             : 16:9\nFrame rate                       : 25.000 fps\nColor space                      : YUV\nChroma subsampling               : 4:2:0\nBit depth                        : 8 bits\nScan type                        : Progressive\nBits/(Pixel*Frame)               : 0.175\nStream size                      : 311 MiB (89%)\n\nAudio\nFormat                           : MPEG Audio\nFormat version                   : Version 1\nFormat profile                   : Layer 3\nMode                             : Joint stereo\nCodec ID                         : 55\nCodec ID/Hint                    : MP3\nBit rate mode                    : Variable\nBit rate                         : 109 Kbps\nNominal bit rate                 : 128 Kbps\nChannel(s)                       : 2 channels\nSampling rate                    : 48.0 KHz\nStream size                      : 34.4 MiB (10%)","torrent":{"xt":"urn:btih:158cf64c3381bc3aef0a6e2ab40deebe5aba0c93","amp;dn":"33+Czas+honoru+S03E07+XviD","amp;tr":["udp%3A%2F%2Ftracker.openbittorrent.com%3A80","udp%3A%2F%2Fopen.demonii.com%3A1337","udp%3A%2F%2Ftracker.coppersurfer.tk%3A6969","udp%3A%2F%2Fexodus.desync.com%3A6969"],"infoHash":"158cf64c3381bc3aef0a6e2ab40deebe5aba0c93","infoHashBuffer":{"type":"Buffer","data":[21,140,246,76,51,129,188,58,239,10,110,42,180,13,238,190,90,186,12,147]},"announce":[],"urlList":[]}}